<?xml version="1.0" encoding="UTF-8"?><svg xmlns="http://www.w3.org/2000/svg" xmlns:xlink="http://www.w3.org/1999/xlink" fill-opacity="1" color-rendering="auto" color-interpolation="auto" text-rendering="auto" stroke="black" stroke-linecap="square" width="1304" stroke-miterlimit="10" shape-rendering="auto" stroke-opacity="1" fill="black" stroke-dasharray="none" font-weight="normal" stroke-width="1" height="840" font-family="'Dialog'" font-style="normal" stroke-linejoin="miter" font-size="12px" stroke-dashoffset="0" image-rendering="auto">
  <!--Generated by ySVG 2.6-->
  <defs id="genericDefs"/>
  <g>
    <defs id="defs1">
      <clipPath clipPathUnits="userSpaceOnUse" id="clipPath1">
        <path d="M0 0 L1304 0 L1304 840 L0 840 L0 0 Z"/>
      </clipPath>
      <clipPath clipPathUnits="userSpaceOnUse" id="clipPath2">
        <path d="M15 18 L1319 18 L1319 858 L15 858 L15 18 Z"/>
      </clipPath>
    </defs>
    <g fill="white" text-rendering="geometricPrecision" shape-rendering="geometricPrecision" transform="translate(-15,-18)" stroke="white">
      <rect x="15" width="1304" height="840" y="18" clip-path="url(#clipPath2)" stroke="none"/>
    </g>
    <g text-rendering="geometricPrecision" stroke-miterlimit="1.45" shape-rendering="geometricPrecision" transform="matrix(1,0,0,1,-15,-18)" stroke-linecap="butt">
      <circle fill="none" r="42.5" clip-path="url(#clipPath2)" cx="275.2504" cy="186.0329"/>
      <text x="248.0483" font-size="20px" y="193.5915" clip-path="url(#clipPath2)" font-family="sans-serif" stroke="none" font-weight="bold" xml:space="preserve">12(8)</text>
      <circle fill="none" r="42.5" clip-path="url(#clipPath2)" cx="174.2504" cy="311.4079"/>
      <text x="147.0483" font-size="20px" y="318.9665" clip-path="url(#clipPath2)" font-family="sans-serif" stroke="none" font-weight="bold" xml:space="preserve">92(2)</text>
      <circle fill="none" r="42.5" clip-path="url(#clipPath2)" cx="73.2504" cy="436.7829"/>
      <text x="46.0483" font-size="20px" y="444.3415" clip-path="url(#clipPath2)" font-family="sans-serif" stroke="none" font-weight="bold" xml:space="preserve">43(8)</text>
      <circle fill="none" r="42.5" clip-path="url(#clipPath2)" cx="275.2504" cy="436.7829"/>
      <text x="248.0483" font-size="20px" y="444.3415" clip-path="url(#clipPath2)" font-family="sans-serif" stroke="none" font-weight="bold" xml:space="preserve">92(3)</text>
      <circle fill="none" r="42.5" clip-path="url(#clipPath2)" cx="73.2504" cy="186.0329"/>
      <text x="46.0483" font-size="20px" y="193.5915" clip-path="url(#clipPath2)" font-family="sans-serif" stroke="none" font-weight="bold" xml:space="preserve">92(5)</text>
      <circle fill="none" r="42.5" clip-path="url(#clipPath2)" cx="73.2504" cy="684.1249"/>
      <text x="46.0483" font-size="20px" y="691.6835" clip-path="url(#clipPath2)" font-family="sans-serif" stroke="none" font-weight="bold" xml:space="preserve">77(2)</text>
      <circle fill="none" r="42.5" clip-path="url(#clipPath2)" cx="275.2504" cy="684.1249"/>
      <text x="248.0483" font-size="20px" y="691.6835" clip-path="url(#clipPath2)" font-family="sans-serif" stroke="none" font-weight="bold" xml:space="preserve">78(2)</text>
      <circle fill="none" r="42.5" clip-path="url(#clipPath2)" cx="873.1241" cy="684.1249"/>
      <text x="845.922" font-size="20px" y="691.6835" clip-path="url(#clipPath2)" font-family="sans-serif" stroke="none" font-weight="bold" xml:space="preserve">62(7)</text>
      <circle fill="none" r="42.5" clip-path="url(#clipPath2)" cx="1067.1241" cy="487.1836"/>
      <text x="1039.922" font-size="20px" y="494.7422" clip-path="url(#clipPath2)" font-family="sans-serif" stroke="none" font-weight="bold" xml:space="preserve">61(8)</text>
      <circle fill="none" r="42.5" clip-path="url(#clipPath2)" cx="1261.1241" cy="487.1836"/>
      <text x="1227.3253" font-size="20px" y="494.7422" clip-path="url(#clipPath2)" font-family="sans-serif" stroke="none" font-weight="bold" xml:space="preserve">60(11)</text>
      <circle fill="none" r="42.5" clip-path="url(#clipPath2)" cx="1067.1241" cy="684.1249"/>
      <text x="1039.922" font-size="20px" y="691.6835" clip-path="url(#clipPath2)" font-family="sans-serif" stroke="none" font-weight="bold" xml:space="preserve">66(1)</text>
      <circle fill="none" r="42.5" clip-path="url(#clipPath2)" cx="715.6417" cy="608.941"/>
      <text x="688.4395" font-size="20px" y="616.4996" clip-path="url(#clipPath2)" font-family="sans-serif" stroke="none" font-weight="bold" xml:space="preserve">56(4)</text>
      <circle fill="none" r="42.5" clip-path="url(#clipPath2)" cx="1173.357" cy="333.7472"/>
      <text x="1146.1549" font-size="20px" y="341.3058" clip-path="url(#clipPath2)" font-family="sans-serif" stroke="none" font-weight="bold" xml:space="preserve">56(3)</text>
      <circle fill="none" r="42.5" clip-path="url(#clipPath2)" cx="873.1241" cy="487.1836"/>
      <text x="845.922" font-size="20px" y="494.7422" clip-path="url(#clipPath2)" font-family="sans-serif" stroke="none" font-weight="bold" xml:space="preserve">60(2)</text>
      <circle fill="none" r="42.5" clip-path="url(#clipPath2)" cx="560.7503" cy="392.9831"/>
      <text x="533.5482" font-size="20px" y="400.5417" clip-path="url(#clipPath2)" font-family="sans-serif" stroke="none" font-weight="bold" xml:space="preserve">56(5)</text>
      <circle fill="none" r="42.5" clip-path="url(#clipPath2)" cx="715.6417" cy="392.9831"/>
      <text x="688.4395" font-size="20px" y="400.5417" clip-path="url(#clipPath2)" font-family="sans-serif" stroke="none" font-weight="bold" xml:space="preserve">62(2)</text>
      <circle fill="none" r="42.5" clip-path="url(#clipPath2)" cx="715.6417" cy="186.0329"/>
      <text x="688.4395" font-size="20px" y="193.5915" clip-path="url(#clipPath2)" font-family="sans-serif" stroke="none" font-weight="bold" xml:space="preserve">56(1)</text>
      <circle fill="none" r="42.5" clip-path="url(#clipPath2)" cx="433.2504" cy="186.0329"/>
      <text x="406.0483" font-size="20px" y="193.5915" clip-path="url(#clipPath2)" font-family="sans-serif" stroke="none" font-weight="bold" xml:space="preserve">55(2)</text>
      <path fill="none" d="M207.1859 270.5238 L242.315 226.9169" stroke-width="3" clip-path="url(#clipPath2)"/>
      <path d="M200.9125 278.3113 L215.1898 270.551 L207.9701 269.5504 L205.4555 262.7092 Z" stroke-width="3" clip-path="url(#clipPath2)" stroke="none"/>
      <path d="M248.5884 219.1295 L234.3111 226.8897 L241.5308 227.8903 L244.0454 234.7315 Z" stroke-width="3" clip-path="url(#clipPath2)" stroke="none"/>
      <path fill="none" d="M141.315 352.2919 L106.1859 395.8988" stroke-width="3" clip-path="url(#clipPath2)"/>
      <path d="M147.5884 344.5045 L133.3111 352.2647 L140.5308 353.2653 L143.0454 360.1065 Z" stroke-width="3" clip-path="url(#clipPath2)" stroke="none"/>
      <path d="M99.9125 403.6863 L114.1898 395.926 L106.9701 394.9254 L104.4555 388.0842 Z" stroke-width="3" clip-path="url(#clipPath2)" stroke="none"/>
      <path fill="none" d="M222.7504 436.7829 L125.7505 436.7829" stroke-width="3" clip-path="url(#clipPath2)"/>
      <path d="M232.7504 436.7829 L217.7504 430.5329 L221.5004 436.7829 L217.7504 443.0329 Z" stroke-width="3" clip-path="url(#clipPath2)" stroke="none"/>
      <path d="M115.7505 436.7829 L130.7505 443.0329 L127.0005 436.7829 L130.7505 430.5329 Z" stroke-width="3" clip-path="url(#clipPath2)" stroke="none"/>
      <path fill="none" d="M275.2505 384.2829 L275.2505 238.5329" stroke-width="3" clip-path="url(#clipPath2)"/>
      <path d="M275.2505 394.2829 L281.5005 379.2829 L275.2505 383.0329 L269.0005 379.2829 Z" stroke-width="3" clip-path="url(#clipPath2)" stroke="none"/>
      <path d="M275.2505 228.5329 L269.0005 243.5329 L275.2505 239.7829 L281.5005 243.5329 Z" stroke-width="3" clip-path="url(#clipPath2)" stroke="none"/>
      <path fill="none" d="M125.7505 186.0329 L222.7504 186.0329" stroke-width="3" clip-path="url(#clipPath2)"/>
      <path d="M115.7505 186.0329 L130.7505 192.2829 L127.0005 186.0329 L130.7505 179.7829 Z" stroke-width="3" clip-path="url(#clipPath2)" stroke="none"/>
      <path d="M232.7504 186.0329 L217.7504 179.7829 L221.5004 186.0329 L217.7504 192.2829 Z" stroke-width="3" clip-path="url(#clipPath2)" stroke="none"/>
      <path fill="none" d="M73.2505 238.5329 L73.2505 384.2829" stroke-width="3" clip-path="url(#clipPath2)"/>
      <path d="M73.2505 228.5329 L67.0005 243.5329 L73.2505 239.7829 L79.5005 243.5329 Z" stroke-width="3" clip-path="url(#clipPath2)" stroke="none"/>
      <path d="M73.2505 394.2829 L79.5005 379.2829 L73.2505 383.0329 L67.0005 379.2829 Z" stroke-width="3" clip-path="url(#clipPath2)" stroke="none"/>
      <path fill="none" d="M222.7504 684.1249 L125.7505 684.1249" stroke-width="3" clip-path="url(#clipPath2)"/>
      <path d="M232.7504 684.1249 L217.7504 677.8749 L221.5004 684.1249 L217.7504 690.3749 Z" stroke-width="3" clip-path="url(#clipPath2)" stroke="none"/>
      <path d="M115.7505 684.1249 L130.7505 690.3749 L127.0005 684.1249 L130.7505 677.8749 Z" stroke-width="3" clip-path="url(#clipPath2)" stroke="none"/>
      <path fill="none" d="M1224.2814 524.5849 L1103.9669 646.7235" stroke-width="3" clip-path="url(#clipPath2)"/>
      <path d="M1231.2991 517.4609 L1216.3199 523.7609 L1223.4042 525.4754 L1225.225 532.533 Z" stroke-width="3" clip-path="url(#clipPath2)" stroke="none"/>
      <path d="M1096.9492 653.8476 L1111.9282 647.5475 L1104.8441 645.833 L1103.0232 638.7755 Z" stroke-width="3" clip-path="url(#clipPath2)" stroke="none"/>
      <path fill="none" d="M915.6241 684.1249 L1014.6241 684.1249" stroke-width="3" clip-path="url(#clipPath2)"/>
      <path d="M1024.6241 684.1249 L1009.6241 677.8749 L1013.3741 684.1249 L1009.6241 690.3749 Z" stroke-width="3" clip-path="url(#clipPath2)" stroke="none"/>
      <path fill="none" d="M1067.1241 529.6836 L1067.1241 631.6249" stroke-width="3" clip-path="url(#clipPath2)"/>
      <path d="M1067.1241 641.6249 L1073.3741 626.6249 L1067.1241 630.3749 L1060.8741 626.6249 Z" stroke-width="3" clip-path="url(#clipPath2)" stroke="none"/>
      <path fill="none" d="M715.6417 651.441 L715.6417 842.6534 L1261.1241 842.6534 L1261.1241 539.6836" stroke-width="3" clip-path="url(#clipPath2)" stroke="rgb(255,102,0)"/>
      <path fill="rgb(255,102,0)" d="M1261.1241 529.6836 L1254.8741 544.6836 L1261.1241 540.9336 L1267.3741 544.6836 Z" stroke-width="3" clip-path="url(#clipPath2)" stroke="none"/>
      <path fill="none" d="M1194.4591 370.6383 L1235.0569 441.6122" stroke-width="3" clip-path="url(#clipPath2)"/>
      <path d="M1240.0221 450.2925 L1237.9994 434.1689 L1234.4363 440.5272 L1227.1492 440.3754 Z" stroke-width="3" clip-path="url(#clipPath2)" stroke="none"/>
      <path fill="none" d="M1037.2991 653.8476 L909.9669 524.5849" stroke-width="3" clip-path="url(#clipPath2)"/>
      <path d="M902.9492 517.4608 L909.0231 532.533 L910.8441 525.4754 L917.9282 523.7609 Z" stroke-width="3" clip-path="url(#clipPath2)" stroke="none"/>
      <path fill="none" d="M749.2644 582.9456 L831.5901 519.2955" stroke-width="3" clip-path="url(#clipPath2)"/>
      <path d="M839.5014 513.179 L823.8117 517.4093 L830.6013 520.0601 L831.4574 527.2983 Z" stroke-width="3" clip-path="url(#clipPath2)" stroke="none"/>
      <path fill="none" d="M1135.5127 353.0878 L919.8729 463.2922" stroke-width="3" clip-path="url(#clipPath2)" stroke="rgb(51,153,102)"/>
      <path fill="rgb(51,153,102)" d="M910.9684 467.843 L927.1694 466.5822 L920.986 462.7234 L921.481 455.4515 Z" stroke-width="3" clip-path="url(#clipPath2)" stroke="none"/>
      <path fill="none" d="M915.6241 487.1836 L1014.6241 487.1836" stroke-width="3" clip-path="url(#clipPath2)"/>
      <path d="M1024.6241 487.1836 L1009.6241 480.9336 L1013.3741 487.1836 L1009.6241 493.4336 Z" stroke-width="3" clip-path="url(#clipPath2)" stroke="none"/>
      <path fill="none" d="M873.1241 529.6836 L873.1241 631.6249" stroke-width="3" clip-path="url(#clipPath2)"/>
      <path d="M873.1241 641.6249 L879.3741 626.6249 L873.1241 630.3749 L866.8741 626.6249 Z" stroke-width="3" clip-path="url(#clipPath2)" stroke="none"/>
      <path fill="none" d="M560.7503 435.4831 L560.7503 684.1249 L820.6241 684.1249" stroke-width="3" clip-path="url(#clipPath2)" stroke="blue"/>
      <path fill="blue" d="M830.6241 684.1249 L815.6241 677.8749 L819.3741 684.1249 L815.6241 690.3749 Z" stroke-width="3" clip-path="url(#clipPath2)" stroke="none"/>
      <path fill="none" d="M560.7503 350.4831 L560.7503 293.7513 L1067.1241 293.7513 L1067.1241 434.6836" stroke-width="3" clip-path="url(#clipPath2)" stroke="aqua"/>
      <path fill="aqua" d="M1067.1241 444.6836 L1073.3741 429.6836 L1067.1241 433.4336 L1060.8741 429.6836 Z" stroke-width="3" clip-path="url(#clipPath2)" stroke="none"/>
      <path fill="none" d="M836.6512 465.3667 L760.6965 419.9333" stroke-width="3" clip-path="url(#clipPath2)"/>
      <path d="M752.1146 414.7999 L761.7791 427.8636 L761.7692 420.575 L768.1958 417.1363 Z" stroke-width="3" clip-path="url(#clipPath2)" stroke="none"/>
      <path fill="none" d="M603.2503 392.9831 L663.1417 392.9831" stroke-width="3" clip-path="url(#clipPath2)"/>
      <path d="M673.1417 392.9831 L658.1417 386.7331 L661.8917 392.9831 L658.1417 399.2331 Z" stroke-width="3" clip-path="url(#clipPath2)" stroke="none"/>
      <path fill="none" d="M715.6417 435.4831 L715.6417 556.441" stroke-width="3" clip-path="url(#clipPath2)"/>
      <path d="M715.6417 566.441 L721.8917 551.441 L715.6417 555.191 L709.3917 551.441 Z" stroke-width="3" clip-path="url(#clipPath2)" stroke="none"/>
      <path fill="none" d="M715.6417 350.4831 L715.6417 238.5329" stroke-width="3" clip-path="url(#clipPath2)" stroke="fuchsia"/>
      <path fill="fuchsia" d="M715.6417 228.5329 L709.3917 243.5329 L715.6417 239.7829 L721.8917 243.5329 Z" stroke-width="3" clip-path="url(#clipPath2)" stroke="none"/>
      <path fill="none" d="M758.1417 186.0329 L873.1241 186.0329 L873.1241 434.6836" stroke-width="3" clip-path="url(#clipPath2)" stroke="rgb(153,204,0)"/>
      <path fill="rgb(153,204,0)" d="M873.1241 444.6836 L879.3741 429.6836 L873.1241 433.4336 L866.8741 429.6836 Z" stroke-width="3" clip-path="url(#clipPath2)" stroke="none"/>
      <path fill="none" d="M758.1417 186.0329 L1261.1241 186.0329 L1261.1241 434.6836" stroke-width="3" clip-path="url(#clipPath2)" stroke="red"/>
      <path fill="red" d="M1261.1241 444.6836 L1267.3741 429.6836 L1261.1241 433.4336 L1254.8741 429.6836 Z" stroke-width="3" clip-path="url(#clipPath2)" stroke="none"/>
      <path fill="none" d="M663.1417 186.0329 L485.7505 186.0329" stroke-width="3" clip-path="url(#clipPath2)"/>
      <path d="M673.1417 186.0329 L658.1417 179.7829 L661.8917 186.0329 L658.1417 192.2829 Z" stroke-width="3" clip-path="url(#clipPath2)" stroke="none"/>
      <path d="M475.7505 186.0329 L490.7505 192.2829 L487.0005 186.0329 L490.7505 179.7829 Z" stroke-width="3" clip-path="url(#clipPath2)" stroke="none"/>
      <path fill="none" d="M455.5431 222.2169 L533.2123 348.2851" stroke-width="3" clip-path="url(#clipPath2)"/>
      <path d="M538.4577 356.799 L535.9109 340.7498 L532.5567 347.2208 L525.2685 347.3065 Z" stroke-width="3" clip-path="url(#clipPath2)" stroke="none"/>
      <path fill="none" d="M433.2505 228.5329 L433.2505 608.941 L663.1417 608.941" stroke-width="3" clip-path="url(#clipPath2)" stroke="rgb(153,51,0)"/>
      <path fill="rgb(153,51,0)" d="M673.1417 608.941 L658.1417 602.691 L661.8917 608.941 L658.1417 615.191 Z" stroke-width="3" clip-path="url(#clipPath2)" stroke="none"/>
      <path fill="none" d="M433.2505 143.5329 L433.2505 33.411 L1173.3571 33.411 L1173.3571 281.2472" stroke-width="3" clip-path="url(#clipPath2)" stroke="purple"/>
      <path fill="purple" d="M1173.3571 291.2472 L1179.6071 276.2472 L1173.3571 279.9972 L1167.1071 276.2472 Z" stroke-width="3" clip-path="url(#clipPath2)" stroke="none"/>
    </g>
  </g>
</svg>
