<?xml version="1.0" encoding="UTF-8"?><svg xmlns="http://www.w3.org/2000/svg" xmlns:xlink="http://www.w3.org/1999/xlink" fill-opacity="1" color-rendering="auto" color-interpolation="auto" text-rendering="auto" stroke="black" stroke-linecap="square" width="824" stroke-miterlimit="10" shape-rendering="auto" stroke-opacity="1" fill="black" stroke-dasharray="none" font-weight="normal" stroke-width="1" height="523" font-family="'Dialog'" font-style="normal" stroke-linejoin="miter" font-size="12px" stroke-dashoffset="0" image-rendering="auto">
  <!--Generated by ySVG 2.6-->
  <defs id="genericDefs"/>
  <g>
    <defs id="defs1">
      <clipPath clipPathUnits="userSpaceOnUse" id="clipPath1">
        <path d="M0 0 L824 0 L824 523 L0 523 L0 0 Z"/>
      </clipPath>
      <clipPath clipPathUnits="userSpaceOnUse" id="clipPath2">
        <path d="M-439 -363 L385 -363 L385 160 L-439 160 L-439 -363 Z"/>
      </clipPath>
    </defs>
    <g fill="white" text-rendering="geometricPrecision" shape-rendering="geometricPrecision" transform="translate(439,363)" stroke="white">
      <rect x="-439" width="824" height="523" y="-363" clip-path="url(#clipPath2)" stroke="none"/>
    </g>
    <g fill="white" text-rendering="geometricPrecision" shape-rendering="geometricPrecision" transform="matrix(1,0,0,1,439,363)" stroke="white">
      <ellipse rx="39.8127" ry="40.9667" clip-path="url(#clipPath2)" cx="-383.8938" cy="-162.6479" stroke="none"/>
    </g>
    <g text-rendering="geometricPrecision" stroke-miterlimit="1.45" shape-rendering="geometricPrecision" transform="matrix(1,0,0,1,439,363)" stroke-linecap="butt">
      <ellipse rx="39.8127" fill="none" ry="40.9667" clip-path="url(#clipPath2)" cx="-383.8938" cy="-162.6479"/>
      <text x="-403.0442" font-size="20px" y="-155.0893" clip-path="url(#clipPath2)" font-family="sans-serif" stroke="none" xml:space="preserve">6(2)</text>
    </g>
    <g fill="white" text-rendering="geometricPrecision" shape-rendering="geometricPrecision" transform="matrix(1,0,0,1,439,363)" stroke="white">
      <ellipse rx="39.8127" ry="40.9667" clip-path="url(#clipPath2)" cx="-188.3257" cy="-162.6479" stroke="none"/>
    </g>
    <g text-rendering="geometricPrecision" stroke-miterlimit="1.45" shape-rendering="geometricPrecision" transform="matrix(1,0,0,1,439,363)" stroke-linecap="butt">
      <ellipse rx="39.8127" fill="none" ry="40.9667" clip-path="url(#clipPath2)" cx="-188.3257" cy="-162.6479"/>
      <text x="-213.7994" font-size="20px" y="-155.0893" clip-path="url(#clipPath2)" font-family="sans-serif" stroke="none" xml:space="preserve">85(2)</text>
    </g>
    <g fill="white" text-rendering="geometricPrecision" shape-rendering="geometricPrecision" transform="matrix(1,0,0,1,439,363)" stroke="white">
      <ellipse rx="39.8127" ry="40.9667" clip-path="url(#clipPath2)" cx="-383.8938" cy="16.3054" stroke="none"/>
    </g>
    <g text-rendering="geometricPrecision" stroke-miterlimit="1.45" shape-rendering="geometricPrecision" transform="matrix(1,0,0,1,439,363)" stroke-linecap="butt">
      <ellipse rx="39.8127" fill="none" ry="40.9667" clip-path="url(#clipPath2)" cx="-383.8938" cy="16.3054"/>
      <text x="-403.0442" font-size="20px" y="23.864" clip-path="url(#clipPath2)" font-family="sans-serif" stroke="none" xml:space="preserve">6(3)</text>
    </g>
    <g fill="white" text-rendering="geometricPrecision" shape-rendering="geometricPrecision" transform="matrix(1,0,0,1,439,363)" stroke="white">
      <ellipse rx="39.8127" ry="40.9667" clip-path="url(#clipPath2)" cx="7.2423" cy="-162.6479" stroke="none"/>
    </g>
    <g text-rendering="geometricPrecision" stroke-miterlimit="1.45" shape-rendering="geometricPrecision" transform="matrix(1,0,0,1,439,363)" stroke-linecap="butt">
      <ellipse rx="39.8127" fill="none" ry="40.9667" clip-path="url(#clipPath2)" cx="7.2423" cy="-162.6479"/>
      <text x="-24.5546" font-size="20px" y="-155.0893" clip-path="url(#clipPath2)" font-family="sans-serif" stroke="none" xml:space="preserve">28(10)</text>
    </g>
    <g fill="white" text-rendering="geometricPrecision" shape-rendering="geometricPrecision" transform="matrix(1,0,0,1,439,363)" stroke="white">
      <ellipse rx="39.8127" ry="40.9667" clip-path="url(#clipPath2)" cx="7.2423" cy="16.3054" stroke="none"/>
    </g>
    <g text-rendering="geometricPrecision" stroke-miterlimit="1.45" shape-rendering="geometricPrecision" transform="matrix(1,0,0,1,439,363)" stroke-linecap="butt">
      <ellipse rx="39.8127" fill="none" ry="40.9667" clip-path="url(#clipPath2)" cx="7.2423" cy="16.3054"/>
      <text x="-29.8573" font-size="20px" y="23.864" clip-path="url(#clipPath2)" font-family="sans-serif" stroke="none" xml:space="preserve">83(4)(c)</text>
    </g>
    <g fill="white" text-rendering="geometricPrecision" shape-rendering="geometricPrecision" transform="matrix(1,0,0,1,439,363)" stroke="white">
      <ellipse rx="39.8127" ry="40.9667" clip-path="url(#clipPath2)" cx="193.116" cy="-162.6479" stroke="none"/>
    </g>
    <g text-rendering="geometricPrecision" stroke-miterlimit="1.45" shape-rendering="geometricPrecision" transform="matrix(1,0,0,1,439,363)" stroke-linecap="butt">
      <ellipse rx="39.8127" fill="none" ry="40.9667" clip-path="url(#clipPath2)" cx="193.116" cy="-162.6479"/>
      <text x="154.8445" font-size="20px" y="-155.0893" clip-path="url(#clipPath2)" font-family="sans-serif" stroke="none" xml:space="preserve">83(5)(d)</text>
    </g>
    <g fill="white" text-rendering="geometricPrecision" shape-rendering="geometricPrecision" transform="matrix(1,0,0,1,439,363)" stroke="white">
      <ellipse rx="39.8127" ry="40.9667" clip-path="url(#clipPath2)" cx="193.116" cy="16.3054" stroke="none"/>
    </g>
    <g text-rendering="geometricPrecision" stroke-miterlimit="1.45" shape-rendering="geometricPrecision" transform="matrix(1,0,0,1,439,363)" stroke-linecap="butt">
      <ellipse rx="39.8127" fill="none" ry="40.9667" clip-path="url(#clipPath2)" cx="193.116" cy="16.3054"/>
      <text x="167.6424" font-size="20px" y="23.864" clip-path="url(#clipPath2)" font-family="sans-serif" stroke="none" xml:space="preserve">41(4)</text>
    </g>
    <g fill="white" text-rendering="geometricPrecision" shape-rendering="geometricPrecision" transform="matrix(1,0,0,1,439,363)" stroke="white">
      <ellipse rx="39.8127" ry="40.9667" clip-path="url(#clipPath2)" cx="-188.3257" cy="16.3054" stroke="none"/>
    </g>
    <g text-rendering="geometricPrecision" stroke-miterlimit="1.45" shape-rendering="geometricPrecision" transform="matrix(1,0,0,1,439,363)" stroke-linecap="butt">
      <ellipse rx="39.8127" fill="none" ry="40.9667" clip-path="url(#clipPath2)" cx="-188.3257" cy="16.3054"/>
      <text x="-225.8257" font-size="20px" y="23.864" clip-path="url(#clipPath2)" font-family="sans-serif" stroke="none" xml:space="preserve">83(4)(a)</text>
    </g>
    <g fill="white" text-rendering="geometricPrecision" shape-rendering="geometricPrecision" transform="matrix(1,0,0,1,439,363)" stroke="white">
      <ellipse rx="39.8127" ry="40.9667" clip-path="url(#clipPath2)" cx="329.4194" cy="103.644" stroke="none"/>
    </g>
    <g text-rendering="geometricPrecision" stroke-miterlimit="1.45" shape-rendering="geometricPrecision" transform="matrix(1,0,0,1,439,363)" stroke-linecap="butt">
      <ellipse rx="39.8127" fill="none" ry="40.9667" clip-path="url(#clipPath2)" cx="329.4194" cy="103.644"/>
      <text x="303.9457" font-size="20px" y="111.2026" clip-path="url(#clipPath2)" font-family="sans-serif" stroke="none" xml:space="preserve">43(7)</text>
      <path fill="none" d="M-344.0811 -162.6479 L-236.1384 -162.6479" clip-path="url(#clipPath2)" stroke="green"/>
      <path fill="green" d="M-228.1384 -162.6479 L-240.1384 -167.6479 L-237.1384 -162.6479 L-240.1384 -157.6479 Z" clip-path="url(#clipPath2)" stroke="none"/>
      <path fill="none" d="M-152.2974 -180.1219 L-150.2094 -182.9141 L-147.9069 -186.7041 L-145.9713 -190.7223 L-144.4256 -194.9455 L-143.2929 -199.3507 L-142.5963 -203.9147 L-142.359 -208.6146 L-142.5963 -213.3144 L-143.2929 -217.8785 L-144.4256 -222.2837 L-145.9713 -226.5069 L-147.9069 -230.5251 L-150.2094 -234.315 L-152.8556 -237.8537 L-155.8223 -241.118 L-159.0866 -244.0848 L-162.6253 -246.7309 L-166.4153 -249.0334 L-170.4334 -250.969 L-174.6566 -252.5148 L-179.0618 -253.6474 L-183.6259 -254.344 L-188.3257 -254.5813 L-193.0256 -254.344 L-197.5896 -253.6474 L-201.9948 -252.5148 L-206.2181 -250.969 L-210.2362 -249.0334 L-214.0262 -246.7309 L-217.5648 -244.0848 L-220.8291 -241.118 L-223.7959 -237.8537 L-226.4421 -234.315 L-228.7445 -230.5251 L-230.6802 -226.5069 L-232.2259 -222.2837 L-233.3586 -217.8785 L-234.0552 -213.3144 L-234.2925 -208.6146 L-234.0552 -203.9148 L-233.3586 -199.3507 L-232.2259 -194.9455 L-230.6802 -190.7223 L-228.7831 -186.7841 L-228.7276 -186.7009" clip-path="url(#clipPath2)" stroke="red"/>
      <path fill="red" d="M-224.2987 -180.0386 L-226.7781 -192.8 L-229.2812 -187.5337 L-235.1059 -187.264 Z" clip-path="url(#clipPath2)" stroke="none"/>
    </g>
    <g stroke-linecap="butt" font-size="20px" transform="matrix(1,0,0,1,439,363)" fill="red" text-rendering="geometricPrecision" font-family="sans-serif" shape-rendering="geometricPrecision" stroke="red" stroke-miterlimit="1.45">
      <text x="-242.649" xml:space="preserve" y="-261.0227" clip-path="url(#clipPath2)" stroke="none">1</text>
    </g>
    <g stroke-linecap="butt" transform="matrix(1,0,0,1,439,363)" fill="green" text-rendering="geometricPrecision" shape-rendering="geometricPrecision" stroke="green" stroke-miterlimit="1.45">
      <path fill="none" d="M-228.1384 -162.6479 L-336.0811 -162.6479" clip-path="url(#clipPath2)"/>
      <path d="M-344.0811 -162.6479 L-332.0811 -157.6479 L-335.0811 -162.6479 L-332.0811 -167.6479 Z" clip-path="url(#clipPath2)" stroke="none"/>
      <text x="-292.433" font-size="20px" y="-185.0893" clip-path="url(#clipPath2)" font-family="sans-serif" stroke="none" xml:space="preserve">2</text>
      <path fill="none" d="M-218.0765 -135.4246 L-348.241 -16.3185" clip-path="url(#clipPath2)" stroke="blue"/>
      <path fill="blue" d="M-354.143 -10.9179 L-341.9146 -15.33 L-347.5032 -16.9936 L-348.6653 -22.7075 Z" clip-path="url(#clipPath2)" stroke="none"/>
      <path fill="none" d="M-354.143 -10.9179 L-223.9785 -130.024" clip-path="url(#clipPath2)" stroke="blue"/>
      <path fill="blue" d="M-218.0765 -135.4246 L-230.3049 -131.0125 L-224.7163 -129.3489 L-223.5542 -123.6349 Z" clip-path="url(#clipPath2)" stroke="none"/>
    </g>
    <g stroke-linecap="butt" font-size="20px" transform="matrix(1,0,0,1,439,363)" fill="blue" text-rendering="geometricPrecision" font-family="sans-serif" shape-rendering="geometricPrecision" stroke="blue" stroke-miterlimit="1.45">
      <text x="-272.8263" xml:space="preserve" y="-42.8895" clip-path="url(#clipPath2)" stroke="none">3</text>
    </g>
    <g stroke-linecap="butt" transform="matrix(1,0,0,1,439,363)" fill="rgb(255,102,0)" text-rendering="geometricPrecision" shape-rendering="geometricPrecision" stroke="rgb(255,102,0)" stroke-miterlimit="1.45">
      <path fill="none" d="M-148.5131 -162.6479 L-40.5704 -162.6479" clip-path="url(#clipPath2)"/>
      <path d="M-32.5704 -162.6479 L-44.5704 -167.6479 L-41.5704 -162.6479 L-44.5704 -157.6479 Z" clip-path="url(#clipPath2)" stroke="none"/>
      <path fill="none" d="M7.2423 -121.6811 L7.2423 -32.6614" clip-path="url(#clipPath2)"/>
      <path d="M7.2423 -24.6614 L12.2423 -36.6614 L7.2423 -33.6614 L2.2423 -36.6614 Z" clip-path="url(#clipPath2)" stroke="none"/>
      <path fill="none" d="M164.3696 -190.9906 L67.5 -286.5 L-145.1006 -183.5743" clip-path="url(#clipPath2)"/>
      <path d="M-152.3011 -180.0883 L-139.3215 -180.817 L-144.2005 -184.0101 L-143.679 -189.8177 Z" clip-path="url(#clipPath2)" stroke="none"/>
      <text x="125.1411" font-size="20px" y="-258.0048" clip-path="url(#clipPath2)" font-family="sans-serif" stroke="none" xml:space="preserve">6</text>
      <path fill="none" d="M47.0549 16.3054 L145.3034 16.3054" clip-path="url(#clipPath2)" stroke="maroon"/>
      <path fill="maroon" d="M153.3034 16.3054 L141.3034 11.3054 L144.3034 16.3054 L141.3034 21.3054 Z" clip-path="url(#clipPath2)" stroke="none"/>
      <path fill="none" d="M193.116 -24.6614 L193.116 -113.6811" clip-path="url(#clipPath2)"/>
      <path d="M193.116 -121.6811 L188.116 -109.6811 L193.116 -112.6811 L198.116 -109.6811 Z" clip-path="url(#clipPath2)" stroke="none"/>
      <path fill="none" d="M153.3034 16.3054 L55.0549 16.3054" clip-path="url(#clipPath2)" stroke="maroon"/>
      <path fill="maroon" d="M47.0549 16.3054 L59.0549 21.3054 L56.0549 16.3054 L59.0549 11.3054 Z" clip-path="url(#clipPath2)" stroke="none"/>
    </g>
    <g stroke-linecap="butt" font-size="20px" transform="matrix(1,0,0,1,439,363)" fill="maroon" text-rendering="geometricPrecision" font-family="sans-serif" shape-rendering="geometricPrecision" stroke="maroon" stroke-miterlimit="1.45">
      <text x="93.8559" xml:space="preserve" y="-6.136" clip-path="url(#clipPath2)" stroke="none">5</text>
    </g>
    <g stroke-linecap="butt" transform="matrix(1,0,0,1,439,363)" fill="fuchsia" text-rendering="geometricPrecision" shape-rendering="geometricPrecision" stroke="fuchsia" stroke-miterlimit="1.45">
      <path fill="none" d="M-22.5085 -135.4246 L-152.673 -16.3185" clip-path="url(#clipPath2)"/>
      <path d="M-158.575 -10.9179 L-146.3466 -15.33 L-151.9352 -16.9936 L-153.0973 -22.7075 Z" clip-path="url(#clipPath2)" stroke="none"/>
      <path fill="none" d="M-158.575 -10.9179 L-28.4105 -130.024" clip-path="url(#clipPath2)"/>
      <path d="M-22.5085 -135.4246 L-34.7369 -131.0125 L-29.1483 -129.3489 L-27.9861 -123.635 Z" clip-path="url(#clipPath2)" stroke="none"/>
      <text x="-77.2582" font-size="20px" y="-42.8895" clip-path="url(#clipPath2)" font-family="sans-serif" stroke="none" xml:space="preserve">4</text>
      <path fill="none" d="M289.6067 103.644 L-188.3257 103.644 L-188.3257 65.2721" clip-path="url(#clipPath2)" stroke="black"/>
      <path fill="black" d="M-188.3257 57.2721 L-193.3257 69.2721 L-188.3257 66.2721 L-183.3257 69.2721 Z" clip-path="url(#clipPath2)" stroke="none"/>
      <path fill="none" d="M290.9203 93.2073 L53.4626 28.8352" clip-path="url(#clipPath2)" stroke="black"/>
      <path fill="black" d="M45.7413 26.742 L56.015 34.7076 L54.4278 29.0968 L58.6315 25.0559 Z" clip-path="url(#clipPath2)" stroke="none"/>
      <path fill="none" d="M310.8663 67.3974 L215.3142 -119.28" clip-path="url(#clipPath2)" stroke="black"/>
      <path fill="black" d="M211.6691 -126.4013 L212.6859 -113.4411 L215.7698 -118.3898 L221.5875 -117.9975 Z" clip-path="url(#clipPath2)" stroke="none"/>
      <path fill="none" d="M329.4194 54.6773 L329.4194 -347.5 L-188.3257 -347.5 L-188.3257 -203.6223" clip-path="url(#clipPath2)" stroke="black"/>
      <path fill="black" d="M329.4194 62.6773 L334.4194 50.6773 L329.4194 53.6773 L324.4194 50.6773 Z" clip-path="url(#clipPath2)" stroke="none"/>
    </g>
  </g>
</svg>
