<?xml version="1.0" encoding="UTF-8"?><svg xmlns="http://www.w3.org/2000/svg" xmlns:xlink="http://www.w3.org/1999/xlink" fill-opacity="1" color-rendering="auto" color-interpolation="auto" text-rendering="auto" stroke="black" stroke-linecap="square" width="829" stroke-miterlimit="10" shape-rendering="auto" stroke-opacity="1" fill="black" stroke-dasharray="none" font-weight="normal" stroke-width="1" height="525" font-family="'Dialog'" font-style="normal" stroke-linejoin="miter" font-size="12px" stroke-dashoffset="0" image-rendering="auto">
  <!--Generated by ySVG 2.6-->
  <defs id="genericDefs"/>
  <g>
    <defs id="defs1">
      <clipPath clipPathUnits="userSpaceOnUse" id="clipPath1">
        <path d="M0 0 L829 0 L829 525 L0 525 L0 0 Z"/>
      </clipPath>
      <clipPath clipPathUnits="userSpaceOnUse" id="clipPath2">
        <path d="M-442 -363 L387 -363 L387 162 L-442 162 L-442 -363 Z"/>
      </clipPath>
    </defs>
    <g fill="white" text-rendering="geometricPrecision" shape-rendering="geometricPrecision" transform="translate(442,363)" stroke="white">
      <rect x="-442" width="829" height="525" y="-363" clip-path="url(#clipPath2)" stroke="none"/>
    </g>
    <g fill="white" text-rendering="geometricPrecision" shape-rendering="geometricPrecision" transform="matrix(1,0,0,1,442,363)" stroke="white">
      <circle r="42.5" clip-path="url(#clipPath2)" cx="-383.8938" cy="-162.6479" stroke="none"/>
    </g>
    <g text-rendering="geometricPrecision" stroke-miterlimit="1.45" shape-rendering="geometricPrecision" transform="matrix(1,0,0,1,442,363)" stroke-linecap="butt">
      <circle fill="none" r="42.5" clip-path="url(#clipPath2)" cx="-383.8938" cy="-162.6479"/>
      <text x="-404.4992" font-size="20px" y="-155.0893" clip-path="url(#clipPath2)" font-family="sans-serif" stroke="none" font-weight="bold" xml:space="preserve">6(2)</text>
    </g>
    <g fill="white" text-rendering="geometricPrecision" shape-rendering="geometricPrecision" transform="matrix(1,0,0,1,442,363)" stroke="white">
      <circle r="42.5" clip-path="url(#clipPath2)" cx="-188.3257" cy="-162.6479" stroke="none"/>
    </g>
    <g text-rendering="geometricPrecision" stroke-miterlimit="1.45" shape-rendering="geometricPrecision" transform="matrix(1,0,0,1,442,363)" stroke-linecap="butt">
      <circle fill="none" r="42.5" clip-path="url(#clipPath2)" cx="-188.3257" cy="-162.6479"/>
      <text x="-215.5279" font-size="20px" y="-155.0893" clip-path="url(#clipPath2)" font-family="sans-serif" stroke="none" font-weight="bold" xml:space="preserve">85(2)</text>
    </g>
    <g fill="white" text-rendering="geometricPrecision" shape-rendering="geometricPrecision" transform="matrix(1,0,0,1,442,363)" stroke="white">
      <circle r="42.5" clip-path="url(#clipPath2)" cx="-383.8938" cy="16.3054" stroke="none"/>
    </g>
    <g text-rendering="geometricPrecision" stroke-miterlimit="1.45" shape-rendering="geometricPrecision" transform="matrix(1,0,0,1,442,363)" stroke-linecap="butt">
      <circle fill="none" r="42.5" clip-path="url(#clipPath2)" cx="-383.8938" cy="16.3054"/>
      <text x="-404.4992" font-size="20px" y="23.864" clip-path="url(#clipPath2)" font-family="sans-serif" stroke="none" font-weight="bold" xml:space="preserve">6(3)</text>
    </g>
    <g fill="white" text-rendering="geometricPrecision" shape-rendering="geometricPrecision" transform="matrix(1,0,0,1,442,363)" stroke="white">
      <circle r="42.5" clip-path="url(#clipPath2)" cx="7.2423" cy="-162.6479" stroke="none"/>
    </g>
    <g text-rendering="geometricPrecision" stroke-miterlimit="1.45" shape-rendering="geometricPrecision" transform="matrix(1,0,0,1,442,363)" stroke-linecap="butt">
      <circle fill="none" r="42.5" clip-path="url(#clipPath2)" cx="7.2423" cy="-162.6479"/>
      <text x="-26.5565" font-size="20px" y="-155.0893" clip-path="url(#clipPath2)" font-family="sans-serif" stroke="none" font-weight="bold" xml:space="preserve">28(10)</text>
    </g>
    <g fill="white" text-rendering="geometricPrecision" shape-rendering="geometricPrecision" transform="matrix(1,0,0,1,442,363)" stroke="white">
      <circle r="42.5" clip-path="url(#clipPath2)" cx="7.2423" cy="16.3054" stroke="none"/>
    </g>
    <g text-rendering="geometricPrecision" stroke-miterlimit="1.45" shape-rendering="geometricPrecision" transform="matrix(1,0,0,1,442,363)" stroke-linecap="butt">
      <circle fill="none" r="42.5" clip-path="url(#clipPath2)" cx="7.2423" cy="16.3054"/>
      <text x="-32.6942" font-size="20px" y="23.864" clip-path="url(#clipPath2)" font-family="sans-serif" stroke="none" font-weight="bold" xml:space="preserve">83(4)(c)</text>
    </g>
    <g fill="white" text-rendering="geometricPrecision" shape-rendering="geometricPrecision" transform="matrix(1,0,0,1,442,363)" stroke="white">
      <circle r="42.5" clip-path="url(#clipPath2)" cx="193.116" cy="-162.6479" stroke="none"/>
    </g>
    <g text-rendering="geometricPrecision" stroke-miterlimit="1.45" shape-rendering="geometricPrecision" transform="matrix(1,0,0,1,442,363)" stroke-linecap="butt">
      <circle fill="none" r="42.5" clip-path="url(#clipPath2)" cx="193.116" cy="-162.6479"/>
      <text x="151.8758" font-size="20px" y="-155.0893" clip-path="url(#clipPath2)" font-family="sans-serif" stroke="none" font-weight="bold" xml:space="preserve">83(5)(d)</text>
    </g>
    <g fill="white" text-rendering="geometricPrecision" shape-rendering="geometricPrecision" transform="matrix(1,0,0,1,442,363)" stroke="white">
      <circle r="42.5" clip-path="url(#clipPath2)" cx="193.116" cy="16.3054" stroke="none"/>
    </g>
    <g text-rendering="geometricPrecision" stroke-miterlimit="1.45" shape-rendering="geometricPrecision" transform="matrix(1,0,0,1,442,363)" stroke-linecap="butt">
      <circle fill="none" r="42.5" clip-path="url(#clipPath2)" cx="193.116" cy="16.3054"/>
      <text x="165.9139" font-size="20px" y="23.864" clip-path="url(#clipPath2)" font-family="sans-serif" stroke="none" font-weight="bold" xml:space="preserve">41(4)</text>
    </g>
    <g fill="white" text-rendering="geometricPrecision" shape-rendering="geometricPrecision" transform="matrix(1,0,0,1,442,363)" stroke="white">
      <circle r="42.5" clip-path="url(#clipPath2)" cx="-188.3257" cy="16.3054" stroke="none"/>
    </g>
    <g text-rendering="geometricPrecision" stroke-miterlimit="1.45" shape-rendering="geometricPrecision" transform="matrix(1,0,0,1,442,363)" stroke-linecap="butt">
      <circle fill="none" r="42.5" clip-path="url(#clipPath2)" cx="-188.3257" cy="16.3054"/>
      <text x="-228.8189" font-size="20px" y="23.864" clip-path="url(#clipPath2)" font-family="sans-serif" stroke="none" font-weight="bold" xml:space="preserve">83(4)(a)</text>
    </g>
    <g fill="white" text-rendering="geometricPrecision" shape-rendering="geometricPrecision" transform="matrix(1,0,0,1,442,363)" stroke="white">
      <circle r="42.5" clip-path="url(#clipPath2)" cx="329.4194" cy="103.644" stroke="none"/>
    </g>
    <g text-rendering="geometricPrecision" stroke-miterlimit="1.45" shape-rendering="geometricPrecision" transform="matrix(1,0,0,1,442,363)" stroke-linecap="butt">
      <circle fill="none" r="42.5" clip-path="url(#clipPath2)" cx="329.4194" cy="103.644"/>
      <text x="302.2172" font-size="20px" y="111.2026" clip-path="url(#clipPath2)" font-family="sans-serif" stroke="none" font-weight="bold" xml:space="preserve">43(7)</text>
      <path fill="none" d="M-341.3938 -162.6479 L-240.8257 -162.6479" stroke-width="3" clip-path="url(#clipPath2)" stroke="green"/>
      <path fill="green" d="M-230.8257 -162.6479 L-245.8257 -168.8979 L-242.0757 -162.6479 L-245.8257 -156.3979 Z" stroke-width="3" clip-path="url(#clipPath2)" stroke="none"/>
      <path fill="none" d="M-150.6435 -182.3336 L-150.2094 -182.9141 L-147.9069 -186.7041 L-145.9713 -190.7223 L-144.4256 -194.9455 L-143.2929 -199.3507 L-142.5963 -203.9147 L-142.359 -208.6146 L-142.5963 -213.3144 L-143.2929 -217.8785 L-144.4256 -222.2837 L-145.9713 -226.5069 L-147.9069 -230.5251 L-150.2094 -234.315 L-152.8556 -237.8537 L-155.8223 -241.118 L-159.0866 -244.0848 L-162.6253 -246.7309 L-166.4153 -249.0334 L-170.4334 -250.969 L-174.6566 -252.5148 L-179.0618 -253.6474 L-183.6259 -254.344 L-188.3257 -254.5813 L-193.0256 -254.344 L-197.5896 -253.6474 L-201.9948 -252.5148 L-206.2181 -250.969 L-210.2362 -249.0334 L-214.0262 -246.7309 L-217.5648 -244.0848 L-220.8291 -241.118 L-223.7959 -237.8537 L-226.4421 -234.315 L-228.7445 -230.5251 L-230.6802 -226.5069 L-232.2259 -222.2837 L-233.3586 -217.8785 L-234.0552 -213.3144 L-234.2925 -208.6146 L-234.0552 -203.9148 L-233.3586 -199.3507 L-232.2259 -194.9455 L-230.8186 -191.1004 L-230.7699 -191.0131" stroke-width="3" clip-path="url(#clipPath2)" stroke="red"/>
      <path fill="red" d="M-225.9599 -182.2459 L-227.6955 -198.403 L-231.3712 -192.109 L-238.6545 -192.3904 Z" stroke-width="3" clip-path="url(#clipPath2)" stroke="none"/>
    </g>
    <g stroke-linecap="butt" font-size="20px" transform="matrix(1,0,0,1,442,363)" fill="red" text-rendering="geometricPrecision" font-family="sans-serif" shape-rendering="geometricPrecision" stroke="red" font-weight="bold" stroke-miterlimit="1.45">
      <text x="-243.1959" xml:space="preserve" y="-261.0227" clip-path="url(#clipPath2)" stroke="none">1</text>
    </g>
    <g stroke-linecap="butt" transform="matrix(1,0,0,1,442,363)" fill="green" text-rendering="geometricPrecision" shape-rendering="geometricPrecision" stroke="green" stroke-width="3" stroke-miterlimit="1.45">
      <path fill="none" d="M-230.8257 -162.6479 L-331.3938 -162.6479" clip-path="url(#clipPath2)"/>
      <path d="M-341.3938 -162.6479 L-326.3938 -156.3979 L-330.1438 -162.6479 L-326.3938 -168.8979 Z" clip-path="url(#clipPath2)" stroke="none"/>
    </g>
    <g stroke-linecap="butt" font-size="20px" transform="matrix(1,0,0,1,442,363)" fill="green" text-rendering="geometricPrecision" font-family="sans-serif" shape-rendering="geometricPrecision" stroke="green" font-weight="bold" stroke-miterlimit="1.45">
      <text x="-292.7065" xml:space="preserve" y="-185.0893" clip-path="url(#clipPath2)" stroke="none">2</text>
    </g>
    <g stroke-linecap="butt" transform="matrix(1,0,0,1,442,363)" fill="blue" text-rendering="geometricPrecision" shape-rendering="geometricPrecision" stroke="blue" stroke-width="3" stroke-miterlimit="1.45">
      <path fill="none" d="M-219.6801 -133.9572 L-345.1619 -19.136" clip-path="url(#clipPath2)"/>
      <path d="M-352.5394 -12.3853 L-337.2539 -17.9004 L-344.2397 -19.9798 L-345.6923 -27.1223 Z" clip-path="url(#clipPath2)" stroke="none"/>
      <path fill="none" d="M-352.5394 -12.3853 L-227.0576 -127.2065" clip-path="url(#clipPath2)"/>
      <path d="M-219.6801 -133.9572 L-234.9656 -128.4421 L-227.9798 -126.3626 L-226.5272 -119.2202 Z" clip-path="url(#clipPath2)" stroke="none"/>
    </g>
    <g stroke-linecap="butt" font-size="20px" transform="matrix(1,0,0,1,442,363)" fill="blue" text-rendering="geometricPrecision" font-family="sans-serif" shape-rendering="geometricPrecision" stroke="blue" font-weight="bold" stroke-miterlimit="1.45">
      <text x="-272.5938" xml:space="preserve" y="-43.3524" clip-path="url(#clipPath2)" stroke="none">3</text>
    </g>
    <g stroke-linecap="butt" transform="matrix(1,0,0,1,442,363)" fill="rgb(255,102,0)" text-rendering="geometricPrecision" shape-rendering="geometricPrecision" stroke="rgb(255,102,0)" stroke-width="3" stroke-miterlimit="1.45">
      <path fill="none" d="M-145.8257 -162.6479 L-45.2577 -162.6479" clip-path="url(#clipPath2)"/>
      <path d="M-35.2577 -162.6479 L-50.2577 -168.8979 L-46.5077 -162.6479 L-50.2577 -156.3979 Z" clip-path="url(#clipPath2)" stroke="none"/>
      <path fill="none" d="M7.2423 -120.1479 L7.2423 -36.1946" clip-path="url(#clipPath2)"/>
      <path d="M7.2423 -26.1946 L13.4923 -41.1946 L7.2423 -37.4446 L0.9923 -41.1946 Z" clip-path="url(#clipPath2)" stroke="none"/>
      <path fill="none" d="M193.116 -205.1479 L193.116 -278.5 L-138.0916 -177.905" clip-path="url(#clipPath2)"/>
      <path d="M-147.66 -174.9989 L-131.4911 -173.3779 L-136.8956 -178.2683 L-135.1237 -185.3384 Z" clip-path="url(#clipPath2)" stroke="none"/>
    </g>
    <g stroke-linecap="butt" font-size="20px" transform="matrix(1,0,0,1,442,363)" fill="rgb(255,102,0)" text-rendering="geometricPrecision" font-family="sans-serif" shape-rendering="geometricPrecision" stroke="rgb(255,102,0)" font-weight="bold" stroke-miterlimit="1.45">
      <text x="216.5193" xml:space="preserve" y="-243.654" clip-path="url(#clipPath2)" stroke="none">6</text>
    </g>
    <g stroke-linecap="butt" transform="matrix(1,0,0,1,442,363)" fill="maroon" text-rendering="geometricPrecision" shape-rendering="geometricPrecision" stroke="maroon" stroke-width="3" stroke-miterlimit="1.45">
      <path fill="none" d="M49.7423 16.3054 L140.616 16.3054" clip-path="url(#clipPath2)"/>
      <path d="M150.616 16.3054 L135.616 10.0554 L139.366 16.3054 L135.616 22.5554 Z" clip-path="url(#clipPath2)" stroke="none"/>
      <path fill="none" d="M193.116 -26.1946 L193.116 -110.1479" clip-path="url(#clipPath2)" stroke="rgb(255,102,0)"/>
      <path fill="rgb(255,102,0)" d="M193.116 -120.1479 L186.866 -105.1479 L193.116 -108.8979 L199.366 -105.1479 Z" clip-path="url(#clipPath2)" stroke="none"/>
      <path fill="none" d="M150.616 16.3054 L59.7423 16.3054" clip-path="url(#clipPath2)"/>
      <path d="M49.7423 16.3054 L64.7423 22.5554 L60.9923 16.3054 L64.7423 10.0554 Z" clip-path="url(#clipPath2)" stroke="none"/>
    </g>
    <g stroke-linecap="butt" font-size="20px" transform="matrix(1,0,0,1,442,363)" fill="maroon" text-rendering="geometricPrecision" font-family="sans-serif" shape-rendering="geometricPrecision" stroke="maroon" font-weight="bold" stroke-miterlimit="1.45">
      <text x="93.5825" xml:space="preserve" y="-6.136" clip-path="url(#clipPath2)" stroke="none">5</text>
    </g>
    <g stroke-linecap="butt" transform="matrix(1,0,0,1,442,363)" fill="fuchsia" text-rendering="geometricPrecision" shape-rendering="geometricPrecision" stroke="fuchsia" stroke-width="3" stroke-miterlimit="1.45">
      <path fill="none" d="M-24.1121 -133.9572 L-149.5939 -19.136" clip-path="url(#clipPath2)"/>
      <path d="M-156.9714 -12.3853 L-141.6859 -17.9004 L-148.6717 -19.9798 L-150.1243 -27.1223 Z" clip-path="url(#clipPath2)" stroke="none"/>
      <path fill="none" d="M-156.9714 -12.3853 L-31.4896 -127.2065" clip-path="url(#clipPath2)"/>
      <path d="M-24.1121 -133.9572 L-39.3976 -128.4421 L-32.4118 -126.3626 L-30.9592 -119.2202 Z" clip-path="url(#clipPath2)" stroke="none"/>
    </g>
    <g stroke-linecap="butt" font-size="20px" transform="matrix(1,0,0,1,442,363)" fill="fuchsia" text-rendering="geometricPrecision" font-family="sans-serif" shape-rendering="geometricPrecision" stroke="fuchsia" font-weight="bold" stroke-miterlimit="1.45">
      <text x="-77.0258" xml:space="preserve" y="-43.3524" clip-path="url(#clipPath2)" stroke="none">4</text>
    </g>
    <g text-rendering="geometricPrecision" stroke-miterlimit="1.45" stroke-width="3" shape-rendering="geometricPrecision" transform="matrix(1,0,0,1,442,363)" stroke-linecap="butt">
      <path fill="none" d="M286.9194 103.644 L-188.3257 103.644 L-188.3257 68.8054" clip-path="url(#clipPath2)"/>
      <path d="M-188.3257 58.8054 L-194.5757 73.8054 L-188.3257 70.0554 L-182.0757 73.8054 Z" clip-path="url(#clipPath2)" stroke="none"/>
      <path fill="none" d="M286.9194 103.644 L7.2423 103.644 L7.2423 68.8054" clip-path="url(#clipPath2)"/>
      <path d="M7.2423 58.8054 L0.9923 73.8054 L7.2423 70.0554 L13.4923 73.8054 Z" clip-path="url(#clipPath2)" stroke="none"/>
      <path fill="none" d="M310.0548 65.812 L217.037 -115.9142" clip-path="url(#clipPath2)"/>
      <path d="M212.4806 -124.8158 L213.7516 -108.6156 L217.6065 -114.8015 L224.8787 -114.3111 Z" clip-path="url(#clipPath2)" stroke="none"/>
      <path fill="none" d="M329.4194 51.144 L329.4194 -347.5 L-188.3257 -347.5 L-188.3257 -205.1296" clip-path="url(#clipPath2)"/>
      <path d="M329.4194 61.144 L335.6694 46.144 L329.4194 49.894 L323.1694 46.144 Z" clip-path="url(#clipPath2)" stroke="none"/>
    </g>
  </g>
</svg>
